<mxfile host="www.draw.io" modified="2019-10-17T18:22:09.810Z" agent="Mozilla/5.0 (Windows NT 10.0; Win64; x64) AppleWebKit/537.36 (KHTML, like Gecko) Chrome/77.0.3865.120 Safari/537.36" etag="6wITBIuCIHZHlZMVFTAw" version="12.1.3" type="github" pages="1">
  <diagram id="9Xd_H_KQtADNy7eV2fk2" name="Page-1">
    <mxGraphModel dx="1178" dy="1763" grid="1" gridSize="10" guides="1" tooltips="1" connect="1" arrows="1" fold="1" page="1" pageScale="1" pageWidth="850" pageHeight="1100" math="0" shadow="0">
      <root>
        <mxCell id="0"/>
        <mxCell id="1" parent="0"/>
        <mxCell id="iTe81DwroU4sXbAUzNBc-4" value="StockMarket" style="swimlane;fontStyle=1;align=center;verticalAlign=top;childLayout=stackLayout;horizontal=1;startSize=26;horizontalStack=0;resizeParent=1;resizeParentMax=0;resizeLast=0;collapsible=1;marginBottom=0;" parent="1" vertex="1">
          <mxGeometry x="265" y="80" width="350" height="180" as="geometry"/>
        </mxCell>
        <mxCell id="iTe81DwroU4sXbAUzNBc-5" value="- pendingBuyOffers: ArrayList&lt;Offers&gt;&#xa;- pendingSellOffers: ArrayList&lt;Offers&gt;&#xa;- totalStocks: ArrayList&lt;Stock&gt;&#xa;- transactionHistory: ArrayList&lt;Transaction&gt;" style="text;strokeColor=none;fillColor=none;align=left;verticalAlign=top;spacingLeft=4;spacingRight=4;overflow=hidden;rotatable=0;points=[[0,0.5],[1,0.5]];portConstraint=eastwest;" parent="iTe81DwroU4sXbAUzNBc-4" vertex="1">
          <mxGeometry y="26" width="350" height="64" as="geometry"/>
        </mxCell>
        <mxCell id="iTe81DwroU4sXbAUzNBc-6" value="" style="line;strokeWidth=1;fillColor=none;align=left;verticalAlign=middle;spacingTop=-1;spacingLeft=3;spacingRight=3;rotatable=0;labelPosition=right;points=[];portConstraint=eastwest;" parent="iTe81DwroU4sXbAUzNBc-4" vertex="1">
          <mxGeometry y="90" width="350" height="8" as="geometry"/>
        </mxCell>
        <mxCell id="iTe81DwroU4sXbAUzNBc-7" value="+ StockMarket(totalStocks)&#xa;+ createOffer(Offer): Offer&#xa;+ deleteOffer(ID): Bool&#xa;+ modifyOffer(ID, stocksCount, unitPrice, companyName): BoolÂ &#xa;+ addStock(companyName, ownerName, stocksCount): void" style="text;strokeColor=none;fillColor=none;align=left;verticalAlign=top;spacingLeft=4;spacingRight=4;overflow=hidden;rotatable=0;points=[[0,0.5],[1,0.5]];portConstraint=eastwest;" parent="iTe81DwroU4sXbAUzNBc-4" vertex="1">
          <mxGeometry y="98" width="350" height="82" as="geometry"/>
        </mxCell>
        <mxCell id="iTe81DwroU4sXbAUzNBc-10" value="Buy&lt;br&gt;Apple&lt;br&gt;nr:3&lt;br&gt;10$&lt;br&gt;total:30$" style="whiteSpace=wrap;html=1;aspect=fixed;" parent="1" vertex="1">
          <mxGeometry x="30" y="-80" width="80" height="80" as="geometry"/>
        </mxCell>
        <mxCell id="iTe81DwroU4sXbAUzNBc-11" value="" style="whiteSpace=wrap;html=1;aspect=fixed;" parent="1" vertex="1">
          <mxGeometry x="350" y="-80" width="80" height="80" as="geometry"/>
        </mxCell>
        <mxCell id="iTe81DwroU4sXbAUzNBc-12" value="Sell&lt;br&gt;Apple&lt;br&gt;nr:3&lt;br&gt;10$&lt;br&gt;total:30$" style="whiteSpace=wrap;html=1;aspect=fixed;" parent="1" vertex="1">
          <mxGeometry x="570" y="-80" width="80" height="80" as="geometry"/>
        </mxCell>
        <mxCell id="iTe81DwroU4sXbAUzNBc-13" value="Sell&lt;br&gt;Apple&lt;br&gt;nr:3&lt;br&gt;9$&lt;br&gt;total:27$" style="whiteSpace=wrap;html=1;aspect=fixed;" parent="1" vertex="1">
          <mxGeometry x="460" y="-80" width="80" height="80" as="geometry"/>
        </mxCell>
        <mxCell id="iTe81DwroU4sXbAUzNBc-14" value="Apple" style="ellipse;whiteSpace=wrap;html=1;aspect=fixed;" parent="1" vertex="1">
          <mxGeometry x="230" y="-90" width="80" height="80" as="geometry"/>
        </mxCell>
        <mxCell id="iTe81DwroU4sXbAUzNBc-15" value="Apple" style="ellipse;whiteSpace=wrap;html=1;aspect=fixed;" parent="1" vertex="1">
          <mxGeometry x="240" y="-80" width="80" height="80" as="geometry"/>
        </mxCell>
        <mxCell id="iTe81DwroU4sXbAUzNBc-16" value="Apple" style="ellipse;whiteSpace=wrap;html=1;aspect=fixed;" parent="1" vertex="1">
          <mxGeometry x="250" y="-70" width="80" height="80" as="geometry"/>
        </mxCell>
        <mxCell id="iTe81DwroU4sXbAUzNBc-18" value="Stock" style="swimlane;fontStyle=1;align=center;verticalAlign=top;childLayout=stackLayout;horizontal=1;startSize=26;horizontalStack=0;resizeParent=1;resizeParentMax=0;resizeLast=0;collapsible=1;marginBottom=0;" parent="1" vertex="1">
          <mxGeometry x="10" y="69" width="250" height="120" as="geometry"/>
        </mxCell>
        <mxCell id="iTe81DwroU4sXbAUzNBc-19" value="- companyName: String&#xa;- ownerName: String" style="text;strokeColor=none;fillColor=none;align=left;verticalAlign=top;spacingLeft=4;spacingRight=4;overflow=hidden;rotatable=0;points=[[0,0.5],[1,0.5]];portConstraint=eastwest;" parent="iTe81DwroU4sXbAUzNBc-18" vertex="1">
          <mxGeometry y="26" width="250" height="44" as="geometry"/>
        </mxCell>
        <mxCell id="iTe81DwroU4sXbAUzNBc-20" value="" style="line;strokeWidth=1;fillColor=none;align=left;verticalAlign=middle;spacingTop=-1;spacingLeft=3;spacingRight=3;rotatable=0;labelPosition=right;points=[];portConstraint=eastwest;" parent="iTe81DwroU4sXbAUzNBc-18" vertex="1">
          <mxGeometry y="70" width="250" height="8" as="geometry"/>
        </mxCell>
        <mxCell id="iTe81DwroU4sXbAUzNBc-21" value="+ Stock(companyName, ownerName)&#xa;+ changeOwner(String): void" style="text;strokeColor=none;fillColor=none;align=left;verticalAlign=top;spacingLeft=4;spacingRight=4;overflow=hidden;rotatable=0;points=[[0,0.5],[1,0.5]];portConstraint=eastwest;" parent="iTe81DwroU4sXbAUzNBc-18" vertex="1">
          <mxGeometry y="78" width="250" height="42" as="geometry"/>
        </mxCell>
        <mxCell id="iTe81DwroU4sXbAUzNBc-22" value="Client" style="swimlane;fontStyle=1;align=center;verticalAlign=top;childLayout=stackLayout;horizontal=1;startSize=26;horizontalStack=0;resizeParent=1;resizeParentMax=0;resizeLast=0;collapsible=1;marginBottom=0;" parent="1" vertex="1">
          <mxGeometry x="30" y="410" width="430" height="140" as="geometry"/>
        </mxCell>
        <mxCell id="iTe81DwroU4sXbAUzNBc-23" value="- name: String" style="text;strokeColor=none;fillColor=none;align=left;verticalAlign=top;spacingLeft=4;spacingRight=4;overflow=hidden;rotatable=0;points=[[0,0.5],[1,0.5]];portConstraint=eastwest;" parent="iTe81DwroU4sXbAUzNBc-22" vertex="1">
          <mxGeometry y="26" width="430" height="34" as="geometry"/>
        </mxCell>
        <mxCell id="iTe81DwroU4sXbAUzNBc-24" value="" style="line;strokeWidth=1;fillColor=none;align=left;verticalAlign=middle;spacingTop=-1;spacingLeft=3;spacingRight=3;rotatable=0;labelPosition=right;points=[];portConstraint=eastwest;" parent="iTe81DwroU4sXbAUzNBc-22" vertex="1">
          <mxGeometry y="60" width="430" height="8" as="geometry"/>
        </mxCell>
        <mxCell id="iTe81DwroU4sXbAUzNBc-25" value="+ Client(nume)&#xa;+ createOffer(stockMarket, Offer): Offer&#xa;+ modifyOffer(stockMarket, ID, stocksCount, unitPrice, companyName): Bool&#xa;+ deleteOffer(stockMarket, ID): Bool" style="text;strokeColor=none;fillColor=none;align=left;verticalAlign=top;spacingLeft=4;spacingRight=4;overflow=hidden;rotatable=0;points=[[0,0.5],[1,0.5]];portConstraint=eastwest;" parent="iTe81DwroU4sXbAUzNBc-22" vertex="1">
          <mxGeometry y="68" width="430" height="72" as="geometry"/>
        </mxCell>
        <mxCell id="iTe81DwroU4sXbAUzNBc-26" value="Offer" style="swimlane;fontStyle=1;align=center;verticalAlign=top;childLayout=stackLayout;horizontal=1;startSize=26;horizontalStack=0;resizeParent=1;resizeParentMax=0;resizeLast=0;collapsible=1;marginBottom=0;" parent="1" vertex="1">
          <mxGeometry x="520" y="436" width="310" height="250" as="geometry"/>
        </mxCell>
        <mxCell id="iTe81DwroU4sXbAUzNBc-27" value="- ID: int&#xa;- offerType: String&#xa;- companyName: String&#xa;- stockCount: Int&#xa;- unitPrice: Double&#xa;- ownerName: String" style="text;strokeColor=none;fillColor=none;align=left;verticalAlign=top;spacingLeft=4;spacingRight=4;overflow=hidden;rotatable=0;points=[[0,0.5],[1,0.5]];portConstraint=eastwest;" parent="iTe81DwroU4sXbAUzNBc-26" vertex="1">
          <mxGeometry y="26" width="310" height="114" as="geometry"/>
        </mxCell>
        <mxCell id="iTe81DwroU4sXbAUzNBc-28" value="" style="line;strokeWidth=1;fillColor=none;align=left;verticalAlign=middle;spacingTop=-1;spacingLeft=3;spacingRight=3;rotatable=0;labelPosition=right;points=[];portConstraint=eastwest;" parent="iTe81DwroU4sXbAUzNBc-26" vertex="1">
          <mxGeometry y="140" width="310" height="8" as="geometry"/>
        </mxCell>
        <mxCell id="iTe81DwroU4sXbAUzNBc-29" value="+ Offer(ID, offerType, companyName, stocksCount,&#xa;unitPrice, ownerName)&#xa;+ updateStocksCount(Int): Int&#xa;+ updateUnitPrice(Int): Int&#xa;+ updateCompanyName(String): String&#xa;+ updateID(int): int&#xa;" style="text;strokeColor=none;fillColor=none;align=left;verticalAlign=top;spacingLeft=4;spacingRight=4;overflow=hidden;rotatable=0;points=[[0,0.5],[1,0.5]];portConstraint=eastwest;" parent="iTe81DwroU4sXbAUzNBc-26" vertex="1">
          <mxGeometry y="148" width="310" height="102" as="geometry"/>
        </mxCell>
        <mxCell id="iTe81DwroU4sXbAUzNBc-30" value="Buy&lt;br&gt;Apple&lt;br&gt;nr:3&lt;br&gt;10$&lt;br&gt;total:30$" style="whiteSpace=wrap;html=1;aspect=fixed;" parent="1" vertex="1">
          <mxGeometry x="120" y="-80" width="80" height="80" as="geometry"/>
        </mxCell>
        <mxCell id="iTe81DwroU4sXbAUzNBc-31" value="Transaction" style="swimlane;fontStyle=1;align=center;verticalAlign=top;childLayout=stackLayout;horizontal=1;startSize=26;horizontalStack=0;resizeParent=1;resizeParentMax=0;resizeLast=0;collapsible=1;marginBottom=0;" parent="1" vertex="1">
          <mxGeometry x="620" y="120" width="190" height="180" as="geometry"/>
        </mxCell>
        <mxCell id="iTe81DwroU4sXbAUzNBc-32" value="- buyerName: String&#xa;- sellerName: String&#xa;- companyName: String&#xa;- stockCount: Int&#xa;- unitPrice: Double" style="text;strokeColor=none;fillColor=none;align=left;verticalAlign=top;spacingLeft=4;spacingRight=4;overflow=hidden;rotatable=0;points=[[0,0.5],[1,0.5]];portConstraint=eastwest;" parent="iTe81DwroU4sXbAUzNBc-31" vertex="1">
          <mxGeometry y="26" width="190" height="84" as="geometry"/>
        </mxCell>
        <mxCell id="iTe81DwroU4sXbAUzNBc-33" value="" style="line;strokeWidth=1;fillColor=none;align=left;verticalAlign=middle;spacingTop=-1;spacingLeft=3;spacingRight=3;rotatable=0;labelPosition=right;points=[];portConstraint=eastwest;" parent="iTe81DwroU4sXbAUzNBc-31" vertex="1">
          <mxGeometry y="110" width="190" height="8" as="geometry"/>
        </mxCell>
        <mxCell id="iTe81DwroU4sXbAUzNBc-34" value="+ Transaction(buyerName,&#xa;sellerName, companyName,Â &#xa;stocksCount, unitPrice)" style="text;strokeColor=none;fillColor=none;align=left;verticalAlign=top;spacingLeft=4;spacingRight=4;overflow=hidden;rotatable=0;points=[[0,0.5],[1,0.5]];portConstraint=eastwest;" parent="iTe81DwroU4sXbAUzNBc-31" vertex="1">
          <mxGeometry y="118" width="190" height="62" as="geometry"/>
        </mxCell>
      </root>
    </mxGraphModel>
  </diagram>
</mxfile>
